<svg xmlns="http://www.w3.org/2000/svg" viewBox="0 0 371.8 481.68"><defs><style>.cls-1{fill:#ff8c10;}</style></defs><title>Asset 2</title><g id="Layer_2" data-name="Layer 2"><g id="Layer_1-2" data-name="Layer 1"><circle class="cls-1" cx="248.94" cy="287.26" r="30.71"/><path class="cls-1" d="M371.8,287.23c0-1,0-2,0-3,0-.22,0-.44,0-.66,0-.79-.05-1.59-.09-2.38,0-.27,0-.54,0-.81,0-.74-.08-1.48-.14-2.22l-.06-.83c-.06-.74-.13-1.48-.2-2.22,0-.26-.05-.51-.08-.77-.08-.77-.17-1.54-.26-2.31,0-.21-.06-.43-.08-.64-.11-.85-.23-1.69-.36-2.54,0-.12,0-.25-.05-.38a124.26,124.26,0,0,0-3.22-14.77l0-.11c-.26-.92-.54-1.84-.82-2.76l-.05-.15c-.29-.92-.58-1.83-.89-2.74l0-.08A121.6,121.6,0,0,0,357,228.75l-.06-.1c-.45-.83-.91-1.66-1.38-2.47a.75.75,0,0,0-.07-.12c-.48-.84-1-1.67-1.47-2.5h0q-3.08-5.06-6.61-9.78l0-.07c-.54-.73-1.1-1.45-1.66-2.16l-.29-.37c-.49-.61-1-1.23-1.48-1.83-.13-.17-.27-.33-.4-.49-.47-.57-.94-1.13-1.42-1.68l-.47-.55c-.47-.53-.94-1.07-1.42-1.6l-.49-.54c-.49-.54-1-1.07-1.49-1.6-.16-.16-.31-.33-.46-.49l-1.76-1.8-.22-.23c-.67-.66-1.34-1.32-2-2l-.55-.52-1.47-1.37-.91-.81c-.38-.34-.76-.69-1.15-1l-1.05-.91-1-.88-1.16-.95-1-.77-1.25-1-.87-.67-1.38-1c-.24-.17-.48-.34-.71-.52l-1.57-1.12-.3-.22q-4.09-2.86-8.44-5.41l-.22-.13-2-1.15-.34-.19c-.67-.38-1.35-.74-2-1.1l-.33-.18c-.7-.36-1.4-.73-2.11-1.08l-.21-.11A122,122,0,0,0,284,169.48h0A123,123,0,0,0,127.44,305.55c0,89.18,157.19,176.13,157.19,176.13V404.85A122.91,122.91,0,0,0,371.8,287.26h0ZM248.94,214.06a72.9,72.9,0,0,1,31.65,7.17l.21.11c1,.48,2,1,2.95,1.51l.13.07a72.49,72.49,0,0,1,8.79,5.63l.17.13c.88.65,1.74,1.33,2.59,2l.13.11a74,74,0,0,1,7.53,7.18l.1.11c.75.82,1.47,1.66,2.17,2.51l.12.13a75,75,0,0,1,6,8.5,1.09,1.09,0,0,1,.08.15c.57.93,1.11,1.87,1.63,2.83l.14.25a72.56,72.56,0,0,1,4.29,9.5l.12.33c.35,1,.68,1.93,1,2.91.06.17.11.34.17.52.3,1,.59,2,.86,3,0,.09,0,.19.07.28.58,2.25,1,4.53,1.41,6.85,0,.23.06.47.1.71.13.89.24,1.79.34,2.69,0,.32.07.63.1.95.08.87.14,1.75.2,2.63,0,.29,0,.59.05.89.06,1.15.09,2.32.09,3.49A73.19,73.19,0,0,1,189.2,329.51h0a73.19,73.19,0,0,1,59.76-115.46Z"/><path class="cls-1" d="M122.85,121.24a72.94,72.94,0,0,1,57.26,27.63,153.36,153.36,0,0,1,53.22-15.43C197.61,61.12,87.16,0,87.16,0V76.84a122.86,122.86,0,0,0,9.61,237.61,153.16,153.16,0,0,1-.45-51.84,73.16,73.16,0,0,1,26.53-141.37Z"/></g></g></svg>