<svg xmlns="http://www.w3.org/2000/svg" viewBox="0 0 402.66 597.24"><defs><style>.cls-1{fill:#ff8c10;}</style></defs><g id="Layer_2" data-name="Layer 2"><g id="Layer_1-2" data-name="Layer 1"><path class="cls-1" d="M10.71,594.59a18.85,18.85,0,0,1-7.91-7.53,25,25,0,0,1,0-23,18.8,18.8,0,0,1,7.91-7.56,25.22,25.22,0,0,1,11.78-2.65q8.63,0,14.4,3.93v8.57a16.3,16.3,0,0,0-6-3.19,27.44,27.44,0,0,0-7.64-1q-6.49,0-10.27,3.6t-3.78,9.79q0,6.25,3.81,9.85T23.27,589a26.71,26.71,0,0,0,7.79-1,19.21,19.21,0,0,0,6.31-3.37v8.57q-5.47,4-14.88,4A25.22,25.22,0,0,1,10.71,594.59Z"/><path class="cls-1" d="M56.62,594.5a20.37,20.37,0,0,1-8-7.64,23.38,23.38,0,0,1,0-22.59,20.31,20.31,0,0,1,8-7.67A23.47,23.47,0,0,1,68,553.86a23.14,23.14,0,0,1,11.28,2.74,20.33,20.33,0,0,1,7.94,7.67,23.31,23.31,0,0,1,0,22.59,20.39,20.39,0,0,1-7.94,7.64A23.14,23.14,0,0,1,68,597.24,23.47,23.47,0,0,1,56.62,594.5Zm17.85-7.23a12,12,0,0,0,4.67-4.64,15.23,15.23,0,0,0,0-14A11.9,11.9,0,0,0,74.53,564a14.12,14.12,0,0,0-13.21,0,12.1,12.1,0,0,0-4.67,4.64,15.11,15.11,0,0,0,0,14,11.91,11.91,0,0,0,4.7,4.64,13.46,13.46,0,0,0,6.6,1.64A13.21,13.21,0,0,0,74.47,587.27Z"/><path class="cls-1" d="M101,554.75h9v34h19v7.56H101Z"/><path class="cls-1" d="M153.52,554.75h8.87l16.6,41.6h-9.23l-3.57-9.05H149.71l-3.57,9.05h-9.28Zm10.29,25.35-5.89-15.83L152,580.1Z"/><path class="cls-1" d="M189.93,554.75h20.41q5.9,0,9.23,2.92t3.33,8.45a10.13,10.13,0,0,1-1.31,5.09,9.2,9.2,0,0,1-3.57,3.54,9.15,9.15,0,0,1,4.64,3.42,10.51,10.51,0,0,1,1.55,6,12.19,12.19,0,0,1-1.7,6.51,11,11,0,0,1-4.64,4.23,14.48,14.48,0,0,1-6.51,1.46H189.93Zm18.69,16.9a5.48,5.48,0,0,0,3.75-1.19,4.8,4.8,0,0,0,1.37-3.81c0-1.9-.45-3.21-1.34-3.92a6.44,6.44,0,0,0-4.08-1.07H199v10Zm.54,17.79a7.16,7.16,0,0,0,4.43-1.16c1-.77,1.52-2.13,1.52-4.07a5.3,5.3,0,0,0-1.58-4.29,7.18,7.18,0,0,0-4.67-1.31H199v10.83Z"/><path class="cls-1" d="M243.46,594.5a20.28,20.28,0,0,1-8-7.64,23.31,23.31,0,0,1,0-22.59,20.22,20.22,0,0,1,8-7.67,23.47,23.47,0,0,1,11.33-2.74,23.14,23.14,0,0,1,11.28,2.74,20.33,20.33,0,0,1,7.94,7.67,23.31,23.31,0,0,1,0,22.59,20.39,20.39,0,0,1-7.94,7.64,23.14,23.14,0,0,1-11.28,2.74A23.47,23.47,0,0,1,243.46,594.5Zm17.85-7.23a12,12,0,0,0,4.67-4.64,15.23,15.23,0,0,0,0-14,11.9,11.9,0,0,0-4.64-4.64,14.12,14.12,0,0,0-13.21,0,12.1,12.1,0,0,0-4.67,4.64,15.11,15.11,0,0,0,0,14,12,12,0,0,0,4.7,4.64,13.46,13.46,0,0,0,6.6,1.64A13.21,13.21,0,0,0,261.31,587.27Z"/><path class="cls-1" d="M287.88,554.75h18c4.72,0,8.4,1.19,11,3.54s3.95,5.77,3.95,10.21a14,14,0,0,1-2.14,7.88,12.18,12.18,0,0,1-6.07,4.73l7.92,15.24h-9.29L304,582.24h-7.08v14.11h-9Zm16.42,19.94a9,9,0,0,0,5.45-1.49,5.47,5.47,0,0,0,2-4.7c0-2.26-.66-3.86-2-4.79a9.35,9.35,0,0,0-5.48-1.4h-7.38v12.38Z"/><path class="cls-1" d="M331.91,554.75h28.86v7.56H341V572h14.58v7.26H341v9.58h19.81v7.56H331.91Z"/><path class="cls-1" d="M369.93,590.34l20.35-28H370.47v-7.56h31v6.07l-20.23,28h21.42v7.56H369.93Z"/><circle class="cls-1" cx="264.37" cy="287.26" r="30.71"/><path class="cls-1" d="M387.23,287.23c0-1,0-2,0-3,0-.22,0-.44,0-.66,0-.79-.05-1.59-.09-2.38,0-.27,0-.54-.05-.81,0-.74-.08-1.48-.14-2.22l-.06-.83c-.06-.74-.13-1.48-.2-2.22,0-.26-.05-.51-.08-.77-.08-.77-.17-1.54-.26-2.31,0-.21-.06-.43-.08-.64-.11-.85-.23-1.69-.36-2.54,0-.12,0-.25-.05-.38a124.26,124.26,0,0,0-3.22-14.77l0-.11c-.26-.92-.54-1.84-.82-2.76l-.05-.15c-.29-.92-.58-1.83-.89-2.74l0-.08a121.6,121.6,0,0,0-8.33-19.08l-.06-.1c-.45-.83-.91-1.66-1.38-2.47a.75.75,0,0,0-.07-.12c-.48-.84-1-1.67-1.47-2.5h0q-3.07-5.06-6.61-9.78l-.05-.07c-.54-.73-1.1-1.45-1.66-2.16l-.29-.37c-.49-.61-1-1.23-1.48-1.83-.13-.17-.27-.33-.4-.49-.47-.57-.94-1.13-1.42-1.68l-.47-.55c-.47-.53-.94-1.07-1.42-1.6l-.49-.54c-.49-.54-1-1.07-1.49-1.6-.16-.16-.31-.33-.46-.49l-1.76-1.8-.22-.23c-.67-.66-1.34-1.32-2-2l-.55-.52c-.49-.46-1-.92-1.47-1.37l-.91-.81c-.38-.34-.76-.69-1.15-1l-1.05-.91-1-.88-1.16-.95c-.32-.26-.63-.52-1-.77l-1.25-1-.87-.67-1.38-1-.71-.52-1.57-1.12-.3-.22q-4.1-2.86-8.44-5.41l-.21-.13-2-1.15-.34-.19c-.67-.38-1.35-.74-2-1.1l-.33-.18c-.7-.36-1.4-.73-2.11-1.08l-.21-.11a122,122,0,0,0-19.71-7.77h0A123,123,0,0,0,142.87,305.55c0,89.18,157.19,176.13,157.19,176.13V404.85a122.91,122.91,0,0,0,87.17-117.59h0ZM264.37,214.06A72.9,72.9,0,0,1,296,221.23l.21.11c1,.48,2,1,3,1.51l.12.07a72.49,72.49,0,0,1,8.79,5.63l.17.13c.88.65,1.74,1.33,2.59,2l.13.11a74,74,0,0,1,7.53,7.18l.1.11c.75.82,1.47,1.66,2.17,2.51l.12.13a75,75,0,0,1,6,8.5l.09.15c.56.93,1.1,1.87,1.62,2.83l.14.25a72.56,72.56,0,0,1,4.29,9.5l.12.33c.35,1,.68,1.93,1,2.91.06.17.11.34.17.52.3,1,.59,2,.86,3,0,.09,0,.19.07.28.58,2.25,1,4.53,1.41,6.85,0,.23.06.47.1.71.13.89.24,1.79.34,2.69,0,.32.07.63.1.95.08.87.14,1.75.2,2.63,0,.29,0,.59.05.89.06,1.15.09,2.32.09,3.49a73.19,73.19,0,0,1-132.95,42.26h0a73.19,73.19,0,0,1,59.76-115.46Z"/><path class="cls-1" d="M138.29,121.24a72.93,72.93,0,0,1,57.25,27.63,153.36,153.36,0,0,1,53.22-15.43C213,61.12,102.59,0,102.59,0V76.84a122.86,122.86,0,0,0,9.61,237.61,153.16,153.16,0,0,1-.45-51.84,73.16,73.16,0,0,1,26.54-141.37Z"/></g></g></svg>